v -0.164488 -0.064625 -0.106649
v -0.153041 0.111967 0.022065
v -0.151712 -0.034168 -0.138504
v -0.150521 0.049915 -0.035066
v -0.14876 -0.001485 -0.138504
v -0.142717 0.090368 -0.08303
v -0.136484 0.129094 -0.138504
v -0.133031 0.036465 -0.112381
v -0.129457 -0.004403 -0.047653
v -0.126366 0.07286 -0.138504
v -0.117492 0.053592 0.002555
v -0.115334 -0.070409 -0.033409
v -0.109273 -0.055716 -0.138504
v -0.108755 -0.096428 -0.095167
v -0.107978 -0.109394 -0.023533
v -0.102868 0.018629 0.006716
v -0.096359 0.105596 -0.072187
v -0.091041 0.066731 0.012725
v -0.087847 0.144132 -0.138504
v -0.083513 -0.01932 0.02721
v -0.082581 -0.019458 0.028851
v -0.081614 0.090109 -0.010808
v -0.076676 -0.125209 -0.062881
v -0.066179 -0.087743 0.005559
v -0.057339 -0.130976 -0.138504
v -0.053799 -0.106131 -0.138504
v -0.052798 0.029559 0.030819
v -0.049932 -0.129664 0.007631
v -0.0495 -0.027262 0.042957
v -0.047964 -0.147931 -0.112001
v -0.046479 0.082356 -0.00202
v -0.044286 0.123863 -0.060516
v -0.041092 -0.128317 0.038433
v -0.038278 -0.155251 -0.046237
v -0.036258 -0.171602 0.014572
v -0.035429 0.158704 -0.138504
v -0.032045 -0.061396 0.039469
v -0.031976 -0.156374 0.045443
v -0.031958 -0.184879 -0.02488
v -0.031596 -0.058651 0.040229
v -0.031561 -0.061897 0.035222
v -0.030111 -0.056027 0.037725
v -0.029887 -0.065609 0.03498
v -0.025812 -0.172569 -0.08562
v -0.023188 -0.191682 -0.054335
v 0 -0.208256 -0.034341
v 0 -0.207808 -0.004506
v 0 -0.192389 0.035429
v 0 -0.181806 -0.089919
v 0 -0.167613 -0.124709
v 0 -0.165386 0.068268
v 0 -0.159723 -0.138504
v 0 -0.127057 0.05796
v 0 -0.066092 0.045771
v 0 -0.031026 0.058875
v 0 0.030456 0.04489
v 0 0.088296 0.007908
v 0 0.134274 -0.058668
v 0 0.16549 -0.138124
v 0.023188 -0.191682 -0.054335
v 0.025812 -0.172569 -0.08562
v 0.029887 -0.065609 0.03498
v 0.030111 -0.056027 0.037725
v 0.031561 -0.061897 0.035222
v 0.031596 -0.058651 0.040229
v 0.031958 -0.184879 -0.02488
v 0.031976 -0.156374 0.045443
v 0.032045 -0.061396 0.039469
v 0.035429 0.158704 -0.138504
v 0.036258 -0.171602 0.014572
v 0.038278 -0.155251 -0.046237
v 0.041092 -0.128317 0.038433
v 0.044286 0.123863 -0.060516
v 0.046479 0.082356 -0.00202
v 0.047964 -0.147931 -0.112001
v 0.0495 -0.027262 0.042957
v 0.049932 -0.129664 0.007631
v 0.052798 0.029559 0.030819
v 0.053799 -0.106131 -0.138504
v 0.057339 -0.130976 -0.138504
v 0.066179 -0.087743 0.005559
v 0.076676 -0.125209 -0.062881
v 0.081614 0.090109 -0.010808
v 0.082581 -0.019458 0.028851
v 0.083513 -0.01932 0.02721
v 0.087847 0.144132 -0.138504
v 0.091041 0.066731 0.012725
v 0.096359 0.105596 -0.072187
v 0.102868 0.018629 0.006716
v 0.107978 -0.109394 -0.023533
v 0.108755 -0.096428 -0.095167
v 0.109273 -0.055716 -0.138504
v 0.115334 -0.070409 -0.033409
v 0.117492 0.053592 0.002555
v 0.126366 0.07286 -0.138504
v 0.129457 -0.004403 -0.047653
v 0.133031 0.036465 -0.112381
v 0.136484 0.129094 -0.138504
v 0.142717 0.090368 -0.08303
v 0.14876 -0.001485 -0.138504
v 0.150521 0.049915 -0.035066
v 0.151712 -0.034168 -0.138504
v 0.153041 0.111967 0.022065
v 0.164488 -0.064625 -0.106649
vt 0.118735 0.306856
vt 0.293311 0.61061
vt 0.0256079 0.343308
vt 0.244629 0.563929
vt 0.00950802 0.433831
vt 0.189578 0.659148
vt 0.103266 0.827549
vt 0.0780997 0.54955
vt 0.233998 0.454982
vt 0.0278592 0.658357
vt 0.31435 0.559841
vt 0.30369 0.34414
vt 0.0829606 0.176922
vt 0.228047 0.231487
vt 0.343359 0.295307
vt 0.33868 0.504713
vt 0.294215 0.727217
vt 0.35547 0.581064
vt 0.233699 0.921877
vt 0.389425 0.446942
vt 0.386418 0.446701
vt 0.355661 0.630011
vt 0.345144 0.196529
vt 0.403602 0.343326
vt 0.31241 0.0367598
vt 0.263968 0.0622948
vt 0.425644 0.525017
vt 0.435359 0.289865
vt 0.438506 0.441357
vt 0.378249 0.0918652
vt 0.421704 0.626134
vt 0.407406 0.762675
vt 0.465105 0.309933
vt 0.428453 0.209749
vt 0.474272 0.263752
vt 0.347421 0.957915
vt 0.461618 0.394314
vt 0.48493 0.289251
vt 0.472467 0.222244
vt 0.462399 0.397047
vt 0.459913 0.389406
vt 0.464142 0.401184
vt 0.462955 0.386175
vt 0.455972 0.141149
vt 0.478746 0.189784
vt 0.511394 0.211634
vt 0.510054 0.236226
vt 0.509674 0.266827
vt 0.51235 0.129781
vt 0.517244 0.0486917
vt 0.508584 0.289605
vt 0.522576 0.0108921
vt 0.508461 0.315314
vt 0.507772 0.389335
vt 0.507103 0.439362
vt 0.505052 0.523538
vt 0.504015 0.628366
vt 0.515588 0.783469
vt 0.501866 0.993745
vt 0.542282 0.191444
vt 0.569465 0.144177
vt 0.553568 0.386954
vt 0.551979 0.403479
vt 0.556532 0.391824
vt 0.553357 0.399348
vt 0.54778 0.224894
vt 0.532505 0.289858
vt 0.553923 0.396262
vt 0.612719 0.98023
vt 0.542762 0.264783
vt 0.590291 0.21348
vt 0.549533 0.308267
vt 0.597398 0.763881
vt 0.585308 0.631184
vt 0.647004 0.0992579
vt 0.575056 0.444517
vt 0.581925 0.295426
vt 0.585363 0.52752
vt 0.799858 0.0511766
vt 0.719084 0.0486979
vt 0.613258 0.345848
vt 0.670481 0.210615
vt 0.646106 0.635997
vt 0.625229 0.453328
vt 0.627333 0.453857
vt 0.757586 0.913201
vt 0.652723 0.584414
vt 0.709434 0.730144
vt 0.671556 0.510268
vt 0.675339 0.301194
vt 0.787116 0.235159
vt 0.920799 0.189659
vt 0.719609 0.350037
vt 0.692223 0.564348
vt 0.957252 0.695809
vt 0.777992 0.458579
vt 0.920775 0.559673
vt 0.896097 0.835744
vt 0.81015 0.667595
vt 0.988981 0.439121
vt 0.758568 0.570717
vt 0.961068 0.348408
vt 0.70737 0.614119
vt 0.875555 0.326817
vn -0.890989 0.448382 0.0713573
vn -0.257963 0.941066 -0.218748
vn -0.901705 0.0814438 0.424612
vn -0.992061 0.0609754 -0.109987
vn -0.901705 0.0814438 0.424612
vn -0.960848 -0.0222732 -0.276181
vn -0.958266 -0.172417 -0.228033
vn -0.901705 0.0814438 0.424612
vn -0.932714 -0.325943 -0.154294
vn -0.945841 0.284904 0.155612
vn -0.151947 -0.3953 0.905898
vn -0.51868 -0.806269 0.284431
vn -0.266177 -0.704128 -0.658296
vn -0.266177 -0.704128 -0.658296
vn -0.508845 -0.155359 0.846723
vn -0.738501 -0.410358 0.534999
vn -0.373642 0.779759 0.502362
vn 0.483358 0.516555 0.706779
vn -0.262372 0.848581 0.459424
vn 0.254718 0.964927 -0.0635207
vn 0.254718 0.964927 -0.0635207
vn -0.37588 0.873069 0.310588
vn -0.753587 -0.641431 -0.143779
vn -0.429924 -0.369576 0.823759
vn -0.60742 0.0865473 -0.789652
vn -0.554297 -0.60992 -0.56635
vn 0.100102 0.516838 0.85021
vn -0.508845 -0.155359 0.846723
vn 0.254718 0.964927 -0.0635207
vn -0.43838 -0.780194 -0.446229
vn 0.0348446 0.814436 0.579206
vn -0.226912 0.898551 0.375656
vn -0.901379 -0.335829 0.273377
vn -0.656447 -0.726524 0.203077
vn -0.946689 -0.3176 -0.053952
vn -0.226912 0.898551 0.375656
vn -0.163004 -0.981821 0.0972446
vn -0.557224 -0.641374 0.527391
vn -0.92059 -0.337727 -0.196097
vn 0.0318659 0.680522 0.732034
vn -0.163004 -0.981821 0.0972446
vn 0.0318659 0.680522 0.732034
vn -0.334975 -0.210932 0.918313
vn -0.764417 -0.643419 0.0409696
vn -0.265042 -0.870667 -0.414357
vn -0.265042 -0.870667 -0.414357
vn -0.588008 -0.808764 0.0121444
vn -0.595891 -0.749163 0.289254
vn -0.36678 -0.861384 -0.351412
vn -0.43838 -0.780194 -0.446229
vn -0.557224 -0.641374 0.527391
vn -0.43838 -0.780194 -0.446229
vn -0.524557 0.221108 0.822163
vn -0.163004 -0.981821 0.0972446
vn -0.34479 -0.328586 0.87929
vn -0.227555 0.524554 0.820404
vn -0.221493 0.799192 0.558779
vn -0.226912 0.898551 0.375656
vn -0.179245 0.915673 0.359742
vn 0.366011 -0.807479 -0.462616
vn 0.764417 -0.643419 0.0409696
vn 0.334975 -0.210932 0.918313
vn -0.273309 0.578622 0.768439
vn 0.163004 -0.981821 0.0972446
vn -0.273309 0.578622 0.768439
vn 0.92059 -0.337727 -0.196097
vn 0.620238 -0.665939 0.414524
vn 0.163004 -0.981821 0.0972446
vn 0.179245 0.915673 0.359742
vn 0.946689 -0.3176 -0.053952
vn 0.656447 -0.726524 0.203077
vn 0.678856 0.160753 0.716459
vn 0.226912 0.898551 0.375656
vn -0.0348446 0.814436 0.579206
vn 0.43838 -0.780194 -0.446229
vn 0.438065 -0.438057 0.784988
vn 0.508845 -0.155359 0.846723
vn -0.100102 0.516838 0.85021
vn 0.554297 -0.60992 -0.56635
vn 0.60742 0.0865473 -0.789652
vn 0.429924 -0.369576 0.823759
vn 0.753587 -0.641431 -0.143779
vn -0.0348446 0.814436 0.579206
vn -0.273309 0.578622 0.768439
vn 0.63205 -0.714986 0.298844
vn 0.262372 0.848581 0.459424
vn -0.483358 0.516555 0.706779
vn 0.262372 0.848581 0.459424
vn 0.721474 -0.223785 0.655283
vn 0.508845 -0.155359 0.846723
vn 0.266177 -0.704128 -0.658296
vn 0.314716 -0.619837 -0.718857
vn 0.831044 -0.0584505 0.553127
vn 0.151947 -0.3953 0.905898
vn 0.945841 0.284904 0.155612
vn 0.932714 -0.325943 -0.154294
vn 0.945841 0.284904 0.155612
vn 0.262372 0.848581 0.459424
vn 0.373642 0.779759 0.502362
vn 0.945841 0.284904 0.155612
vn 0.992061 0.0609754 -0.109987
vn 0.901705 0.0814438 0.424612
vn 0.257963 0.941066 -0.218748
vn 0.890989 0.448382 0.0713573
f 83/83/83 103/103/103 88/88/88
f 53/53/53 72/72/72 62/62/62
f 53/53/53 62/62/62 54/54/54
f 68/68/68 65/65/65 54/54/54
f 53/53/53 51/51/51 67/67/67
f 53/53/53 67/67/67 72/72/72
f 72/72/72 67/67/67 70/70/70
f 72/72/72 70/70/70 77/77/77
f 84/84/84 65/65/65 68/68/68
f 67/67/67 51/51/51 48/48/48
f 67/67/67 48/48/48 70/70/70
f 70/70/70 48/48/48 47/47/47
f 70/70/70 47/47/47 66/66/66
f 70/70/70 66/66/66 71/71/71
f 70/70/70 71/71/71 77/77/77
f 66/66/66 47/47/47 46/46/46
f 66/66/66 46/46/46 60/60/60
f 60/60/60 61/61/61 71/71/71
f 60/60/60 71/71/71 66/66/66
f 60/60/60 46/46/46 49/49/49
f 60/60/60 49/49/49 61/61/61
f 50/50/50 75/75/75 61/61/61
f 50/50/50 61/61/61 49/49/49
f 75/75/75 82/82/82 71/71/71
f 75/75/75 71/71/71 61/61/61
f 82/82/82 90/90/90 77/77/77
f 82/82/82 77/77/77 71/71/71
f 93/93/93 85/85/85 81/81/81
f 93/93/93 81/81/81 90/90/90
f 91/91/91 93/93/93 90/90/90
f 91/91/91 90/90/90 82/82/82
f 80/80/80 91/91/91 82/82/82
f 80/80/80 82/82/82 75/75/75
f 52/52/52 80/80/80 75/75/75
f 52/52/52 75/75/75 50/50/50
f 56/56/56 55/55/55 76/76/76
f 56/56/56 76/76/76 78/78/78
f 85/85/85 89/89/89 78/78/78
f 85/85/85 78/78/78 76/76/76
f 85/85/85 93/93/93 96/96/96
f 85/85/85 96/96/96 89/89/89
f 93/93/93 91/91/91 104/104/104
f 93/93/93 104/104/104 96/96/96
f 91/91/91 80/80/80 79/79/79
f 91/91/91 79/79/79 92/92/92
f 104/104/104 91/91/91 92/92/92
f 104/104/104 92/92/92 102/102/102
f 57/57/57 56/56/56 78/78/78
f 57/57/57 78/78/78 74/74/74
f 87/87/87 78/78/78 89/89/89
f 87/87/87 89/89/89 94/94/94
f 74/74/74 78/78/78 87/87/87
f 74/74/74 87/87/87 83/83/83
f 89/89/89 96/96/96 101/101/101
f 89/89/89 101/101/101 94/94/94
f 102/102/102 97/97/97 96/96/96
f 102/102/102 96/96/96 104/104/104
f 101/101/101 96/96/96 97/97/97
f 101/101/101 97/97/97 99/99/99
f 94/94/94 101/101/101 103/103/103
f 101/101/101 99/99/99 103/103/103
f 87/87/87 94/94/94 103/103/103
f 83/83/83 87/87/87 103/103/103
f 73/73/73 58/58/58 57/57/57
f 73/73/73 57/57/57 74/74/74
f 83/83/83 88/88/88 73/73/73
f 83/83/83 73/73/73 74/74/74
f 99/99/99 88/88/88 103/103/103
f 72/72/72 77/77/77 81/81/81
f 72/72/72 81/81/81 62/62/62
f 81/81/81 77/77/77 90/90/90
f 64/64/64 62/62/62 81/81/81
f 64/64/64 81/81/81 85/85/85
f 54/54/54 62/62/62 64/64/64
f 63/63/63 76/76/76 55/55/55
f 63/63/63 55/55/55 54/54/54
f 85/85/85 76/76/76 84/84/84
f 2/2/2 22/22/22 17/17/17
f 43/43/43 33/33/33 53/53/53
f 43/43/43 53/53/53 54/54/54
f 54/54/54 40/40/40 37/37/37
f 53/53/53 33/33/33 38/38/38
f 53/53/53 38/38/38 51/51/51
f 33/33/33 28/28/28 35/35/35
f 33/33/33 35/35/35 38/38/38
f 40/40/40 21/21/21 37/37/37
f 38/38/38 35/35/35 48/48/48
f 38/38/38 48/48/48 51/51/51
f 35/35/35 39/39/39 47/47/47
f 35/35/35 47/47/47 48/48/48
f 34/34/34 39/39/39 35/35/35
f 34/34/34 35/35/35 28/28/28
f 39/39/39 45/45/45 46/46/46
f 39/39/39 46/46/46 47/47/47
f 45/45/45 39/39/39 34/34/34
f 45/45/45 34/34/34 44/44/44
f 45/45/45 44/44/44 49/49/49
f 45/45/45 49/49/49 46/46/46
f 50/50/50 49/49/49 44/44/44
f 50/50/50 44/44/44 30/30/30
f 30/30/30 44/44/44 34/34/34
f 30/30/30 34/34/34 23/23/23
f 28/28/28 15/15/15 23/23/23
f 28/28/28 23/23/23 34/34/34
f 12/12/12 15/15/15 24/24/24
f 12/12/12 24/24/24 20/20/20
f 15/15/15 12/12/12 14/14/14
f 15/15/15 14/14/14 23/23/23
f 23/23/23 14/14/14 25/25/25
f 23/23/23 25/25/25 30/30/30
f 30/30/30 25/25/25 52/52/52
f 30/30/30 52/52/52 50/50/50
f 56/56/56 27/27/27 29/29/29
f 56/56/56 29/29/29 55/55/55
f 27/27/27 16/16/16 20/20/20
f 27/27/27 20/20/20 29/29/29
f 20/20/20 16/16/16 9/9/9
f 20/20/20 9/9/9 12/12/12
f 12/12/12 9/9/9 1/1/1
f 12/12/12 1/1/1 14/14/14
f 26/26/26 25/25/25 14/14/14
f 26/26/26 14/14/14 13/13/13
f 1/1/1 3/3/3 13/13/13
f 1/1/1 13/13/13 14/14/14
f 57/57/57 31/31/31 27/27/27
f 57/57/57 27/27/27 56/56/56
f 18/18/18 11/11/11 16/16/16
f 18/18/18 16/16/16 27/27/27
f 31/31/31 22/22/22 18/18/18
f 31/31/31 18/18/18 27/27/27
f 16/16/16 11/11/11 4/4/4
f 16/16/16 4/4/4 9/9/9
f 3/3/3 1/1/1 9/9/9
f 3/3/3 9/9/9 8/8/8
f 4/4/4 6/6/6 8/8/8
f 4/4/4 8/8/8 9/9/9
f 11/11/11 2/2/2 4/4/4
f 6/6/6 4/4/4 2/2/2
f 2/2/2 11/11/11 18/18/18
f 2/2/2 18/18/18 22/22/22
f 57/57/57 58/58/58 32/32/32
f 57/57/57 32/32/32 31/31/31
f 22/22/22 31/31/31 32/32/32
f 22/22/22 32/32/32 17/17/17
f 6/6/6 2/2/2 17/17/17
f 33/33/33 43/43/43 24/24/24
f 33/33/33 24/24/24 28/28/28
f 28/28/28 24/24/24 15/15/15
f 24/24/24 43/43/43 41/41/41
f 24/24/24 41/41/41 20/20/20
f 43/43/43 54/54/54 41/41/41
f 55/55/55 29/29/29 42/42/42
f 55/55/55 42/42/42 54/54/54
f 29/29/29 21/21/21 42/42/42
f 84/84/84 68/68/68 64/64/64
f 84/84/84 64/64/64 85/85/85
f 54/54/54 64/64/64 68/68/68
f 54/54/54 65/65/65 63/63/63
f 84/84/84 76/76/76 63/63/63
f 84/84/84 63/63/63 65/65/65
f 21/21/21 20/20/20 41/41/41
f 21/21/21 41/41/41 37/37/37
f 21/21/21 40/40/40 42/42/42
f 21/21/21 29/29/29 20/20/20
f 54/54/54 42/42/42 40/40/40
f 54/54/54 37/37/37 41/41/41
f 73/73/73 88/88/88 86/86/86
f 73/73/73 86/86/86 69/69/69
f 32/32/32 36/36/36 19/19/19
f 32/32/32 19/19/19 17/17/17
f 58/58/58 73/73/73 69/69/69
f 58/58/58 69/69/69 59/59/59
f 58/58/58 59/59/59 36/36/36
f 58/58/58 36/36/36 32/32/32
f 99/99/99 97/97/97 95/95/95
f 99/99/99 95/95/95 98/98/98
f 88/88/88 99/99/99 98/98/98
f 88/88/88 98/98/98 86/86/86
f 17/17/17 19/19/19 7/7/7
f 17/17/17 7/7/7 6/6/6
f 6/6/6 7/7/7 10/10/10
f 6/6/6 10/10/10 8/8/8
f 97/97/97 102/102/102 100/100/100
f 97/97/97 100/100/100 95/95/95
f 8/8/8 10/10/10 5/5/5
f 8/8/8 5/5/5 3/3/3
